# xmcd
#
# Track frame offsets: 
#        150
#        40356
#        57186
#        81576
#        104346
#        122106
#        173736
#        191916
#        241146
#
# Disc length: 3595 seconds
#
# Revision: 0
# Processed by: cddbd v1.5.2PL0 Copyright (c) Steve Scherf et al.
# Submitted via: ExactAudioCopy v1.2
#
DISCID=7b0e0909
DTITLE=Rod Piazza and The Mighty Flyers - Live at Fleetwoods [CD2]
DYEAR=2017
DGENRE=Blues
TTITLE0=Low Down Dog (Live)
TTITLE1=Bad Bad Boy (Live)
TTITLE2=Key To The Highway (Live)
TTITLE3=Tbone Jumps Again (Live)
TTITLE4=Mellow Down Easy (Live)
TTITLE5=Are You Out There (Live)
TTITLE6=Ain't No Rockin No More (Live)
TTITLE7=Love And Money (Live)
TTITLE8=Tangled With A Woman (Live)
EXTD=
EXTT0=
EXTT1=
EXTT2=
EXTT3=
EXTT4=
EXTT5=
EXTT6=
EXTT7=
EXTT8=
PLAYORDER=
